<svg xmlns="http://www.w3.org/2000/svg" width="32" height="32" viewBox="0 0 32 32">
  <rect width="32" height="32" rx="6" fill="#0a0a0b"/>
  <svg x="6" y="6" width="20" height="20" viewBox="0 0 100 100">
    <path d="M 37.32 15.0 L 38.84 15.0 L 40.36 15.0 L 41.88 15.51 L 43.41 15.51 L 44.93 16.01 L 46.45 16.52 L 47.97 17.03 L 49.49 18.04 L 51.01 17.54 L 52.54 17.03 L 54.06 16.52 L 55.58 16.01 L 57.1 15.51 L 58.62 15.51 L 60.14 15.0 L 61.67 15.0 L 63.19 15.51 L 64.71 15.51 L 66.23 16.01 L 67.75 16.52 L 69.28 17.03 L 70.8 17.54 L 72.32 18.55 L 73.84 20.07 L 75.36 21.59 L 76.88 23.12 L 77.9 24.64 L 78.41 26.16 L 78.91 27.68 L 79.42 29.2 L 79.93 30.72 L 79.93 32.25 L 79.93 33.77 L 79.42 35.29 L 79.42 36.81 L 78.41 38.33 L 77.39 39.86 L 75.87 41.38 L 74.35 42.39 L 72.83 43.41 L 71.3 43.91 L 69.78 43.91 L 68.26 44.42 L 66.74 44.42 L 65.22 43.91 L 63.7 43.41 L 62.17 42.9 L 60.65 41.88 L 59.13 40.36 L 58.12 38.84 L 57.1 37.32 L 56.59 35.8 L 56.09 34.28 L 56.09 32.75 L 56.09 31.23 L 55.58 29.71 L 55.58 28.19 L 54.57 26.67 L 54.06 25.14 L 53.04 23.62 L 51.52 22.1 L 50.0 21.09 L 48.48 22.1 L 46.96 23.62 L 45.94 25.14 L 45.43 26.67 L 44.42 28.19 L 43.91 29.71 L 43.91 31.23 L 43.91 32.75 L 43.91 34.28 L 43.91 35.8 L 44.42 37.32 L 44.93 38.84 L 45.43 40.36 L 46.45 41.88 L 47.97 43.41 L 49.49 44.93 L 51.01 45.94 L 52.54 46.96 L 54.06 47.97 L 55.58 48.48 L 57.1 48.48 L 58.62 48.99 L 60.14 48.99 L 61.67 49.49 L 63.19 49.49 L 64.71 49.49 L 66.23 50.0 L 67.75 50.51 L 69.28 51.01 L 70.8 51.52 L 72.32 52.54 L 73.84 54.06 L 75.36 55.58 L 76.88 57.1 L 77.39 58.62 L 78.41 60.14 L 78.91 61.67 L 79.42 63.19 L 79.93 64.71 L 79.93 66.23 L 79.93 67.75 L 79.93 69.28 L 79.42 70.8 L 78.91 72.32 L 78.41 73.84 L 77.9 75.36 L 76.88 76.88 L 75.87 78.41 L 74.35 79.93 L 72.83 80.94 L 71.3 81.96 L 69.78 82.97 L 68.26 83.48 L 66.74 83.99 L 65.22 84.49 L 63.7 85.0 L 62.17 85.0 L 60.65 85.0 L 59.13 85.0 L 57.61 85.0 L 56.09 84.49 L 54.57 83.99 L 53.04 83.48 L 51.52 82.97 L 50.0 81.96 L 48.48 82.97 L 46.96 83.48 L 45.43 83.99 L 43.91 84.49 L 42.39 85.0 L 40.87 85.0 L 39.35 85.0 L 37.83 85.0 L 36.3 85.0 L 34.78 84.49 L 33.26 83.99 L 31.74 83.48 L 30.22 82.97 L 28.7 81.96 L 27.17 80.94 L 25.65 79.93 L 24.13 78.41 L 23.12 76.88 L 22.1 75.36 L 21.59 73.84 L 21.09 72.32 L 20.58 70.8 L 20.07 69.28 L 20.07 67.75 L 20.07 66.23 L 20.58 64.71 L 20.58 63.19 L 21.59 61.67 L 22.61 60.14 L 24.13 58.62 L 25.65 57.61 L 27.17 57.1 L 28.7 56.59 L 30.22 56.09 L 31.74 56.09 L 33.26 56.09 L 34.78 56.09 L 36.3 56.59 L 37.83 57.61 L 39.35 58.62 L 40.87 59.64 L 41.88 61.16 L 42.9 62.68 L 43.41 64.2 L 43.91 65.72 L 43.91 67.25 L 43.91 68.77 L 43.91 70.29 L 44.42 71.81 L 44.93 73.33 L 45.94 74.86 L 46.96 76.38 L 48.48 77.9 L 50.0 79.42 L 51.52 77.9 L 53.04 76.38 L 54.06 74.86 L 55.07 73.33 L 55.58 71.81 L 56.09 70.29 L 56.09 68.77 L 56.09 67.25 L 56.09 65.72 L 56.09 64.2 L 55.58 62.68 L 55.07 61.16 L 54.06 59.64 L 53.04 58.12 L 52.03 56.59 L 50.51 55.07 L 48.99 54.06 L 47.46 53.04 L 45.94 52.54 L 44.42 52.03 L 42.9 51.52 L 41.38 51.01 L 39.86 51.01 L 38.33 51.01 L 36.81 51.01 L 35.29 50.51 L 33.77 50.0 L 32.25 50.0 L 30.72 48.99 L 29.2 48.48 L 27.68 47.46 L 26.16 46.45 L 24.64 44.93 L 23.62 43.41 L 22.61 41.88 L 21.59 40.36 L 21.09 38.84 L 20.58 37.32 L 20.07 35.8 L 20.07 34.28 L 20.07 32.75 L 20.07 31.23 L 20.58 29.71 L 20.58 28.19 L 21.09 26.67 L 22.1 25.14 L 23.12 23.62 L 24.13 22.1 L 25.14 20.58 L 26.67 19.57 L 28.19 18.55 L 29.71 17.54 L 31.23 16.52 L 32.75 16.01 L 34.28 15.51 L 35.8 15.51 L 37.32 15.0 Z" fill="#e5e5e5"/>
  </svg>
  <rect x="1" y="1" width="30" height="30" rx="5" fill="none" stroke="#333" stroke-width="0.5" stroke-dasharray="2 2"/>
</svg>
